<svg xmlns="http://www.w3.org/2000/svg" width="20" height="20" viewBox="0 0 20 20">
    <path fill="#000" fill-rule="evenodd" d="M16.875 10.475v-.956l1.2-1.05a1.25 1.25 0 0 0 .238-1.594l-1.476-2.5a1.25 1.25 0 0 0-1.08-.625 1.25 1.25 0 0 0-.4.063l-1.52.512a7.094 7.094 0 0 0-.818-.469L12.7 2.281a1.25 1.25 0 0 0-1.25-1.006H8.525a1.25 1.25 0 0 0-1.25 1.006l-.319 1.575c-.285.138-.56.295-.825.469l-1.487-.538a1.25 1.25 0 0 0-.4-.037 1.25 1.25 0 0 0-1.081.625l-1.475 2.5a1.25 1.25 0 0 0 .256 1.569l1.181 1.081v.956l-1.181 1.05a1.25 1.25 0 0 0-.256 1.594l1.475 2.5a1.25 1.25 0 0 0 1.08.625c.137.001.272-.02.4-.063l1.52-.512c.262.174.535.33.818.469l.319 1.575a1.25 1.25 0 0 0 1.25 1.006h2.95a1.25 1.25 0 0 0 1.25-1.006l.319-1.575c.285-.138.56-.295.825-.469l1.512.512a1.25 1.25 0 0 0 1.481-.563l1.425-2.499a1.25 1.25 0 0 0-.256-1.569l-1.181-1.081zM15.756 15l-2.143-.725a5.537 5.537 0 0 1-1.694.981l-.444 2.244h-2.95l-.444-2.219a5.85 5.85 0 0 1-1.687-.981l-2.15.7-1.475-2.5 1.7-1.5a5.562 5.562 0 0 1 0-1.956L2.769 7.5 4.244 5l2.144.725a5.538 5.538 0 0 1 1.693-.981L8.525 2.5h2.95l.444 2.219a5.85 5.85 0 0 1 1.687.981l2.15-.7 1.475 2.5-1.7 1.5c.116.647.116 1.31 0 1.956l1.7 1.544-1.475 2.5zM10 13.75A3.75 3.75 0 1 1 13.75 10 3.713 3.713 0 0 1 10 13.75zm0-6.25A2.444 2.444 0 0 0 7.5 10a2.444 2.444 0 0 0 2.5 2.5 2.444 2.444 0 0 0 2.5-2.5A2.444 2.444 0 0 0 10 7.5z"/>
</svg>
