<svg xmlns="http://www.w3.org/2000/svg" width="20" height="20" viewBox="0 0 20 20">
    <path fill="#000" fill-rule="evenodd" d="M19.337 9.787a10.25 10.25 0 0 0-3.58-4.656l2.993-3-.881-.881L1.25 17.869l.881.881 3.188-3.181A9.612 9.612 0 0 0 10 16.875a10.431 10.431 0 0 0 9.337-6.662.625.625 0 0 0 0-.425zM10 14.063c-.861 0-1.7-.276-2.394-.787l1.144-1.131a2.5 2.5 0 0 0 3.394-3.394l1.131-1.131A4.056 4.056 0 0 1 10 14.063zm-7.169-.43l3.125-3.126A4.275 4.275 0 0 1 5.937 10a4.069 4.069 0 0 1 4.557-4.031l2.362-2.357A8.994 8.994 0 0 0 10 3.125 10.431 10.431 0 0 0 .662 9.787a.625.625 0 0 0 0 .425 9.913 9.913 0 0 0 2.17 3.42z"/>
</svg>
