<svg xmlns="http://www.w3.org/2000/svg" width="20" height="20" viewBox="0 0 20 20">
    <path fill="#000" fill-rule="evenodd" d="M17.938 12.688L16.25 11V8.125a6.294 6.294 0 0 0-5.625-6.25V.625h-1.25v1.25a6.344 6.344 0 0 0-5.625 6.25V11l-1.688 1.688a.569.569 0 0 0-.187.437V15a.587.587 0 0 0 .625.625h4.375a3.125 3.125 0 0 0 6.25 0H17.5a.587.587 0 0 0 .625-.625v-1.875a.569.569 0 0 0-.188-.438zM10 17.5a1.875 1.875 0 0 1-1.875-1.875h3.75c0 1.036-.84 1.875-1.875 1.875zm6.875-3.125H3.125v-1l1.688-1.688A.569.569 0 0 0 5 11.25V8.125a5 5 0 1 1 10 0v3.125a.569.569 0 0 0 .188.438l1.687 1.687v1z"/>
</svg>
