<svg xmlns="http://www.w3.org/2000/svg" width="20" height="20" viewBox="0 0 20 20">
    <path fill="#000" fill-rule="evenodd" d="M16.25 13.75a2.413 2.413 0 0 0-1.25.356l-1.931-1.937a3.75 3.75 0 0 0 0-4.338L15 5.894c.376.23.809.354 1.25.356a2.5 2.5 0 1 0-2.5-2.5c.002.441.125.874.356 1.25L12.17 6.931a3.75 3.75 0 0 0-4.338 0L5.894 5c.23-.376.354-.809.356-1.25a2.5 2.5 0 1 0-2.5 2.5A2.413 2.413 0 0 0 5 5.894L6.931 7.83a3.75 3.75 0 0 0 0 4.338L5 14.106a2.413 2.413 0 0 0-1.25-.356 2.5 2.5 0 1 0 2.5 2.5A2.412 2.412 0 0 0 5.894 15l1.937-1.931a3.75 3.75 0 0 0 4.338 0L14.106 15c-.23.376-.354.809-.356 1.25a2.5 2.5 0 1 0 2.5-2.5zm0-11.25a1.25 1.25 0 1 1 0 2.5 1.25 1.25 0 0 1 0-2.5zM2.5 3.75a1.25 1.25 0 1 1 2.5 0 1.25 1.25 0 0 1-2.5 0zM3.75 17.5a1.25 1.25 0 1 1 0-2.5 1.25 1.25 0 0 1 0 2.5zm6.25-5a2.5 2.5 0 1 1 0-5 2.5 2.5 0 0 1 0 5zm6.25 5a1.25 1.25 0 1 1 0-2.5 1.25 1.25 0 0 1 0 2.5z"/>
</svg>
