<svg xmlns="http://www.w3.org/2000/svg" width="20" height="20" viewBox="0 0 20 20">
    <path fill="#000" fill-rule="evenodd" d="M6.287 11.175c.193.047.39.072.588.075a2.5 2.5 0 0 0 1.394-.425l2.012 1.794a2.425 2.425 0 0 0-.125 1.981 2.5 2.5 0 1 0 3.981-2.725l1.588-3.181a2.362 2.362 0 0 0 1.819-.332 2.5 2.5 0 1 0-2.931-.237l-1.588 3.181a2.5 2.5 0 0 0-1.919.369L9.094 9.881A2.425 2.425 0 0 0 9.219 7.9a2.5 2.5 0 1 0-4.031 2.681L2.5 15.625V1.25H1.25V17.5c0 .69.56 1.25 1.25 1.25h16.25V17.5H2.919l3.368-6.325zM16.25 5a1.25 1.25 0 1 1 0 2.5 1.25 1.25 0 0 1 0-2.5zm-2.5 8.75a1.25 1.25 0 1 1-2.5 0 1.25 1.25 0 0 1 2.5 0zM6.875 7.5a1.25 1.25 0 1 1 0 2.5 1.25 1.25 0 0 1 0-2.5z"/>
</svg>
