<?xml version="1.0" encoding="UTF-8"?>
<svg width="20px" height="20px" viewBox="0 0 20 20" version="1.1" xmlns="http://www.w3.org/2000/svg" xmlns:xlink="http://www.w3.org/1999/xlink">
    <!-- Generator: sketchtool 60.1 (101010) - https://sketch.com -->
    <title>E957224B-1659-4688-9EF2-76158E0F6491</title>
    <desc>Created with sketchtool.</desc>
    <g id="Symbols" stroke="none" stroke-width="1" fill="none" fill-rule="evenodd">
        <g id="Atoms/icons/Organization/File/document--export" fill="#000000">
            <path d="M8.125,13.125 L16.35625,13.125 L14.74375,14.74375 L15.625,15.625 L18.75,12.5 L15.625,9.375 L14.74375,10.25625 L16.35625,11.875 L8.125,11.875 L8.125,13.125 Z M13.7500105,8.75 L13.7500105,6.25 C13.7509605,6.08387313 13.6857416,5.92419927 13.56875,5.80625 L9.19375,1.43125 C9.07580073,1.31425843 8.91612687,1.24903953 8.75,1.24998954 L2.5,1.24998954 C1.80964406,1.24998954 1.25,1.80964406 1.25,2.5 L1.25,17.5 C1.25,18.1903559 1.80964406,18.75 2.5,18.75 L12.5,18.75 C13.1903559,18.75 13.7500105,18.1903559 13.7500105,17.5 L13.7500105,16.25 L12.5,16.25 L12.5,17.5 L2.5,17.5 L2.5,2.5 L7.5,2.5 L7.5,6.25 C7.5,6.94035594 8.05964406,7.5 8.75,7.5 L12.5,7.5 L12.5,8.75 L13.7500105,8.75 Z M8.75,6.25 L8.75,2.75625 L12.24375,6.25 L8.75,6.25 Z" id="Fill"></path>
        </g>
    </g>
</svg>