<svg xmlns="http://www.w3.org/2000/svg" width="20" height="20" viewBox="0 0 20 20">
    <path fill="#000" fill-rule="evenodd" d="M5.651 11.979a1.576 1.576 0 1 1-1.575-1.576h1.575v1.576zm.795 0a1.576 1.576 0 1 1 3.15 0v3.945a1.576 1.576 0 1 1-3.15 0V11.98zM8.02 5.65a1.576 1.576 0 1 1 1.576-1.575v1.575H8.02zm0 .795a1.576 1.576 0 1 1 0 3.15H4.075a1.576 1.576 0 1 1 0-3.15h3.946zM14.35 8.02a1.576 1.576 0 1 1 1.575 1.576h-1.575V8.02zm-.795 0a1.576 1.576 0 1 1-3.15 0V4.075a1.576 1.576 0 1 1 3.15 0v3.946zM11.98 14.35a1.576 1.576 0 1 1-1.576 1.575v-1.575h1.576zm0-.795a1.576 1.576 0 1 1 0-3.15h3.945a1.576 1.576 0 1 1 0 3.15H11.98z"/>
</svg>
