<svg xmlns="http://www.w3.org/2000/svg" width="20" height="20" viewBox="0 0 20 20">
    <path fill="#000" fill-rule="evenodd" d="M14.375 12.5a3.125 3.125 0 0 0-2.431 1.181l-4.569-2.856a2.787 2.787 0 0 0 0-1.65l4.569-2.856a3.125 3.125 0 1 0-.694-1.944c.003.28.045.557.125.825L6.806 8.056a3.125 3.125 0 1 0 0 3.888l4.569 2.856c-.08.268-.122.546-.125.825a3.125 3.125 0 1 0 3.125-3.125zm0-10a1.875 1.875 0 1 1 0 3.75 1.875 1.875 0 0 1 0-3.75zm-10 9.375a1.875 1.875 0 1 1 0-3.75 1.875 1.875 0 0 1 0 3.75zm10 5.625a1.875 1.875 0 1 1 0-3.75 1.875 1.875 0 0 1 0 3.75z"/>
</svg>
