<svg xmlns="http://www.w3.org/2000/svg" width="20" height="20" viewBox="0 0 20 20">
    <path fill="#000" fill-rule="evenodd" d="M10 6.25A1.875 1.875 0 1 1 10 10a1.875 1.875 0 0 1 0-3.75zM10 5a3.125 3.125 0 1 0 0 6.25A3.125 3.125 0 0 0 10 5zm0-2.5a5.55 5.55 0 0 1 5.625 5.444c0 1.18-.393 2.326-1.119 3.256L10 17.788 5.531 11.25a5.294 5.294 0 0 1-1.156-3.306A5.55 5.55 0 0 1 10 2.5zm0-1.25a6.788 6.788 0 0 0-6.875 6.694A6.581 6.581 0 0 0 4.5 11.963L10 20l5.5-8.037a6.581 6.581 0 0 0 1.375-4.02A6.787 6.787 0 0 0 10 1.25z"/>
</svg>
