<svg xmlns="http://www.w3.org/2000/svg" width="20" height="20" viewBox="0 0 20 20">
    <path fill="#000" fill-rule="evenodd" d="M7.563 1.25a6.125 6.125 0 0 0-3.375 1l4 4a1.312 1.312 0 0 1 .124 1.875A1.313 1.313 0 0 1 6.438 8L2.313 4A6.15 6.15 0 0 0 1.25 7.563a6.337 6.337 0 0 0 6.313 6.312 6.812 6.812 0 0 0 1.625-.188l4.187 4.188a3.138 3.138 0 0 0 4.438-4.438L13.625 9.25c.128-.532.19-1.078.188-1.625a6.25 6.25 0 0 0-6.25-6.375zm5 6.313c-.001.444-.065.885-.188 1.312l-.188.688.5.5 4.188 4.187a1.8 1.8 0 0 1 .563 1.313 1.7 1.7 0 0 1-.563 1.312 1.813 1.813 0 0 1-2.625 0l-4.188-4.188-.5-.5-.687.188a4.756 4.756 0 0 1-1.313.188A5.169 5.169 0 0 1 4 11.124a4.769 4.769 0 0 1-1.5-3.563c0-.464.064-.927.188-1.375l2.75 2.75a2.587 2.587 0 0 0 3.687.126A2.587 2.587 0 0 0 9 5.374l-2.75-2.75a4.036 4.036 0 0 1 1.25-.188 5.17 5.17 0 0 1 3.563 1.438 5.306 5.306 0 0 1 1.5 3.688z"/>
</svg>
