<svg xmlns="http://www.w3.org/2000/svg" width="20" height="20" viewBox="0 0 20 20">
    <path fill="#000" fill-rule="evenodd" d="M18.75 12.503h-.625V1.253h-1.25v11.25h-.625c-.69.001-1.249.56-1.25 1.25v1.25c.001.69.56 1.25 1.25 1.25h.625v2.5h1.25v-2.5h.625a1.252 1.252 0 0 0 1.25-1.25v-1.25a1.252 1.252 0 0 0-1.25-1.25zm0 2.5h-2.5v-1.25h2.5v1.25zm-5-6.25h-.625v-7.5h-1.25v7.5h-.625c-.69 0-1.25.56-1.25 1.25v1.25c0 .69.56 1.25 1.25 1.25h.625v6.25h1.25v-6.25h.625a1.252 1.252 0 0 0 1.25-1.25v-1.25c0-.69-.56-1.25-1.25-1.25zm0 2.5h-2.5v-1.25h2.5v1.25zm-5-6.875h-.625V1.253h-1.25v3.125H6.25c-.69 0-1.25.56-1.25 1.25v1.25c0 .69.56 1.25 1.25 1.25h.625v10.625h1.25V8.128h.625c.69 0 1.25-.56 1.25-1.25v-1.25c0-.69-.56-1.25-1.25-1.25zm0 2.5h-2.5v-1.25h2.5v1.25zm-5 6.25h-.625V1.253h-1.25v11.875H1.25c-.69 0-1.25.56-1.25 1.25v1.25c0 .69.56 1.25 1.25 1.25h.625v1.875h1.25v-1.875h.625c.69 0 1.25-.56 1.25-1.25v-1.25c0-.69-.56-1.25-1.25-1.25zm0 2.5h-2.5v-1.25h2.5v1.25z"/>
</svg>
