<svg xmlns="http://www.w3.org/2000/svg" width="20" height="20" viewBox="0 0 20 20">
    <path fill="#000" fill-rule="evenodd" d="M17.5 1.25H10c-.69 0-1.25.56-1.25 1.25v6.25H2.5c-.69 0-1.25.56-1.25 1.25v8.75h17.5V2.5c0-.69-.56-1.25-1.25-1.25zM5.625 17.5v-4.375h2.5V17.5h-2.5zm11.875 0H9.375v-5a.625.625 0 0 0-.625-.625H5a.625.625 0 0 0-.625.625v5H2.5V10H10V2.5h7.5v15zM11.25 5h1.25v1.25h-1.25V5zM15 5h1.25v1.25H15V5zm-3.75 3.75h1.25V10h-1.25V8.75zm3.75 0h1.25V10H15V8.75zm-3.75 3.75h1.25v1.25h-1.25V12.5zm3.75 0h1.25v1.25H15V12.5zm-11.563-5a2.188 2.188 0 0 1 0-4.375h.392A2.504 2.504 0 0 1 6.25 1.25H7.5V2.5H6.25C5.56 2.5 5 3.06 5 3.75v.625H3.437a.938.938 0 0 0 0 1.875H7.5V7.5H3.437z"/>
</svg>
