<svg xmlns="http://www.w3.org/2000/svg" width="20" height="20" viewBox="0 0 20 20">
    <path fill="#000" fill-rule="evenodd" d="M6.875 15h6.25v1.25h-6.25V15zm1.25 2.5h3.75v1.25h-3.75V17.5zM10 1.25A6.25 6.25 0 0 0 3.75 7.5a5.744 5.744 0 0 0 2.162 4.762c.625.582.963.913.963 1.488h1.25c0-1.15-.694-1.794-1.369-2.412A4.5 4.5 0 0 1 5 7.5a5 5 0 0 1 10 0 4.5 4.5 0 0 1-1.762 3.838c-.67.625-1.363 1.25-1.363 2.412h1.25c0-.575.331-.906.963-1.494A5.738 5.738 0 0 0 16.25 7.5 6.25 6.25 0 0 0 10 1.25z"/>
</svg>
