<svg xmlns="http://www.w3.org/2000/svg" width="20" height="20" viewBox="0 0 20 20">
    <path fill="#000" fill-rule="evenodd" d="M16.25 8.75H15V10h1.25a1.877 1.877 0 0 1 1.875 1.875v2.5h1.25v-2.5A3.129 3.129 0 0 0 16.25 8.75zM15 2.5a1.875 1.875 0 1 1 0 3.75 1.875 1.875 0 0 1 0-3.75zm0-1.25a3.125 3.125 0 1 0 0 6.25 3.125 3.125 0 0 0 0-6.25zm-.625 17.5h-1.25V17.5a1.877 1.877 0 0 0-1.875-1.875h-2.5A1.877 1.877 0 0 0 6.875 17.5v1.25h-1.25V17.5a3.129 3.129 0 0 1 3.125-3.125h2.5a3.129 3.129 0 0 1 3.125 3.125v1.25zM10 8.125a1.875 1.875 0 1 1 0 3.75 1.875 1.875 0 0 1 0-3.75zm0-1.25a3.125 3.125 0 1 0 0 6.25 3.125 3.125 0 0 0 0-6.25zM5 8.75H3.75a3.129 3.129 0 0 0-3.125 3.125v2.5h1.25v-2.5A1.877 1.877 0 0 1 3.75 10H5V8.75zM5 2.5a1.875 1.875 0 1 1 0 3.75A1.875 1.875 0 0 1 5 2.5zm0-1.25A3.125 3.125 0 1 0 5 7.5a3.125 3.125 0 0 0 0-6.25z"/>
</svg>
