<svg xmlns="http://www.w3.org/2000/svg" width="20" height="20" viewBox="0 0 20 20">
    <path fill="#000" fill-rule="evenodd" d="M10 1.25a8.75 8.75 0 1 0 0 17.5 8.75 8.75 0 0 0 0-17.5zM6.25 16.488v-1.25a2.012 2.012 0 0 1 1.875-2.113h3.75a2.012 2.012 0 0 1 1.875 2.119v1.25a7.45 7.45 0 0 1-7.5 0v-.006zm8.75-.913v-.381a3.256 3.256 0 0 0-3.125-3.319h-3.75A3.25 3.25 0 0 0 5 15.194v.368a7.5 7.5 0 1 1 10 0v.013zm-5-11.2a3.125 3.125 0 1 0 0 6.25 3.125 3.125 0 0 0 0-6.25zm0 5a1.875 1.875 0 1 1 0-3.75 1.875 1.875 0 0 1 0 3.75z"/>
</svg>
